<?xml version="1.0" encoding="UTF-8" standalone="no"?>
<svg xmlns:inkscape="http://www.inkscape.org/namespaces/inkscape" xmlns:rdf="http://www.w3.org/1999/02/22-rdf-syntax-ns#" xmlns="http://www.w3.org/2000/svg" xmlns:sodipodi="http://inkscape.sourceforge.net/DTD/sodipodi-0.dtd" xmlns:ns1="http://sozi.baierouge.fr" xmlns:cc="http://web.resource.org/cc/" xmlns:xlink="http://www.w3.org/1999/xlink" xmlns:dc="http://purl.org/dc/elements/1.1/" id="svg1" viewBox="0 0 60 60" sodipodi:version="0.32" _SVGFile__filename="oldscale/mimetypes/source_s.svg" version="1.0" inkscape:version="0.41" y="0" x="0" sodipodi:docname="source_s.svgz" sodipodi:docbase="/home/danny/work/icons/mono/scalable/mimetypes">
  <sodipodi:namedview id="base" bordercolor="#666666" inkscape:window-x="0" inkscape:window-y="0" pagecolor="#ffffff" inkscape:zoom="3.6941902" inkscape:pageshadow="2" borderopacity="1.0" inkscape:current-layer="svg1" inkscape:cx="56.642996" inkscape:cy="25.873964" inkscape:window-width="1020" inkscape:pageopacity="0.0" inkscape:window-height="691" />
  <path id="path1097" style="stroke-linejoin:round;stroke:#ffffff;stroke-linecap:round;stroke-width:8.125;fill:none" d="m6.6826 4.6879c-1.1054 0-1.9953 0.8962-1.9953 2.0095v46.606c0 1.113 0.8899 2.009 1.9953 2.009h46.634c1.106 0 1.996-0.896 1.996-2.009v-46.606c0-1.1129-0.89-2.0091-1.996-2.0091h-46.634z" />
  <path id="rect812" style="stroke-linejoin:round;fill-rule:evenodd;stroke:#000000;stroke-linecap:round;stroke-width:3.125;fill:#ffffff" d="m6.6826 4.6879c-1.1054 0-1.9953 0.8962-1.9953 2.0095v46.606c0 1.113 0.8899 2.009 1.9953 2.009h46.634c1.106 0 1.996-0.896 1.996-2.009v-46.606c0-1.1129-0.89-2.0091-1.996-2.0091h-46.634z" />
  <path id="path841" style="fill:#000000" d="m15.959 44.134c0-1.305 0.376-2.422 1.127-3.352 0.751-0.948 1.77-1.422 3.057-1.422 0.59 0 1.529 0.251 2.817 0.751 1.287 0.483 2.396 0.868 3.325 1.154 0.948 0.268 2.101 0.402 3.46 0.402 1.627 0 2.816-0.358 3.567-1.073 0.769-0.715 1.154-1.6 1.154-2.655 0-0.733-0.197-1.341-0.59-1.824-0.394-0.501-0.93-0.921-1.61-1.26-0.679-0.358-1.663-0.743-2.95-1.154s-2.387-0.76-3.299-1.046c-1.859-0.59-3.451-1.251-4.774-1.984-1.323-0.751-2.423-1.824-3.299-3.219-0.876-1.412-1.314-3.227-1.314-5.445 0-2.771 0.635-5.104 1.904-7 1.288-1.895 2.995-3.308 5.123-4.237 2.128-0.9301 4.47-1.395 7.027-1.395 3.504 0 6.231 0.5454 8.18 1.636 1.949 1.091 2.924 2.521 2.924 4.291 0 1.198-0.376 2.209-1.127 3.031-0.733 0.805-1.681 1.207-2.843 1.207-0.804 0-1.913-0.259-3.326-0.778-1.412-0.518-2.825-0.778-4.237-0.778-1.216 0-2.199 0.304-2.95 0.912s-1.127 1.386-1.127 2.334c0 0.554 0.134 1.001 0.402 1.341 0.286 0.322 0.787 0.652 1.502 0.992 0.733 0.34 1.833 0.751 3.299 1.234 1.484 0.483 2.53 0.831 3.138 1.046 2.951 0.965 5.275 2.289 6.974 3.969 1.698 1.663 2.548 4.202 2.548 7.617 0 4.327-1.395 7.608-4.184 9.843-2.79 2.235-6.375 3.353-10.755 3.353-1.949 0-3.934-0.241-5.955-0.724-2.002-0.483-3.701-1.225-5.096-2.226-1.394-1.002-2.092-2.182-2.092-3.541z" />
</svg>